/* XPM */
static char * top_left_inactive_xpm[] = {
"6 32 23 1",
" 	c None",
".	c #070708",
"+	c #4B4D55",
"@	c #373942",
"#	c #363942",
"$	c #363841",
"%	c #353841",
"&	c #353740",
"*	c #343740",
"=	c #34363F",
"-	c #33363E",
";	c #33353E",
">	c #32353D",
",	c #32343D",
"'	c #31343C",
")	c #31333C",
"!	c #31333B",
"~	c #30323B",
"{	c #30323A",
"]	c #2F313A",
"^	c #2F3139",
"/	c #2E3039",
"(	c #2E3038",
"    ..",
"  ..++",
" .@@@@",
" .####",
".#####",
".$$$$$",
".%%%%%",
".%%%%%",
".&&&&&",
".*****",
".*****",
".=====",
".=====",
".-----",
".;;;;;",
".;;;;;",
".>>>>>",
".,,,,,",
".,,,,,",
".'''''",
".)))))",
".!!!!!",
".!!!!!",
".~~~~~",
".{{{{{",
".{{{{{",
".]]]]]",
".^^^^^",
".^^^^^",
"./////",
".(((((",
"......"};
