/* XPM */
static char * top_left_active_xpm[] = {
"6 32 22 1",
" 	c None",
".	c #070708",
"+	c #41424B",
"@	c #32343D",
"#	c #31333C",
"$	c #31333B",
"%	c #30323B",
"&	c #30323A",
"*	c #2F313A",
"=	c #2F3139",
"-	c #2E3039",
";	c #2E3038",
">	c #2D2F37",
",	c #2C2E36",
"'	c #2C2E35",
")	c #2B2D35",
"!	c #2B2D34",
"~	c #2A2C34",
"{	c #2A2C33",
"]	c #292B33",
"^	c #33353C",
"/	c #17181C",
"    ..",
"  ..++",
" .@@@@",
" .@@@@",
".@@@@@",
".#####",
".#####",
".$$$$$",
".%%%%%",
".%%%%%",
".&&&&&",
".*****",
".=====",
".=====",
".-----",
".;;;;;",
".;;;;;",
".>>>>>",
".>>>>>",
".>>>>>",
".,,,,,",
".,,,,,",
".'''''",
".)))))",
".)))))",
".!!!!!",
".~~~~~",
".{{{{{",
".{{{{{",
".]]]]]",
".^^^^^",
"./////"};
