/* XPM */
static char * top_right_inactive_xpm[] = {
"7 32 26 1",
" 	c None",
".	c #070708",
"+	c #4F515B",
"@	c #494953",
"#	c #3C3E48",
"$	c #3E4049",
"%	c #42444C",
"&	c #3B3D48",
"*	c #3D3F49",
"=	c #3B3D47",
"-	c #3A3C47",
";	c #3A3C46",
">	c #393B46",
",	c #393B45",
"'	c #383A44",
")	c #373943",
"!	c #363842",
"~	c #363841",
"{	c #353741",
"]	c #353740",
"^	c #343640",
"/	c #34363F",
"(	c #33353F",
"_	c #33353E",
":	c #09090B",
"<	c #060607",
"...... ",
"++++@..",
"####$%.",
"&&&&&*.",
"&&&&&&.",
"======.",
"------.",
"------.",
";;;;;;.",
">>>>>>.",
">>>>>>.",
",,,,,,.",
",,,,,,.",
"''''''.",
"''''''.",
"''''''.",
")))))).",
")))))).",
")))))).",
"!!!!!!.",
"!!!!!!.",
"~~~~~~.",
"~~~~~~.",
"{{{{{{.",
"]]]]]].",
"]]]]]].",
"^^^^^^.",
"//////.",
"//////.",
"((((((.",
"______.",
"::::::<"};
