/* XPM */
static char * top_left_active_xpm[] = {
"6 32 20 1",
" 	c None",
".	c #070708",
"+	c #4F515B",
"@	c #3C3E48",
"#	c #3B3D48",
"$	c #3B3D47",
"%	c #3A3C47",
"&	c #3A3C46",
"*	c #393B46",
"=	c #393B45",
"-	c #383A44",
";	c #373943",
">	c #363842",
",	c #363841",
"'	c #353741",
")	c #353740",
"!	c #343640",
"~	c #34363F",
"{	c #33353F",
"]	c #33353E",
"     .",
"   ..+",
"  .@@@",
" .####",
" .####",
".$$$$$",
".%%%%%",
".%%%%%",
".&&&&&",
".*****",
".*****",
".=====",
".=====",
".-----",
".-----",
".-----",
".;;;;;",
".;;;;;",
".;;;;;",
".>>>>>",
".>>>>>",
".,,,,,",
".,,,,,",
".'''''",
".)))))",
".)))))",
".!!!!!",
".~~~~~",
".~~~~~",
".{{{{{",
".]]]]]",
"......"};
