/* XPM */
static char * top_right_active_xpm[] = {
"6 32 31 1",
" 	c None",
".	c #070708",
"+	c #41424B",
"@	c #32343D",
"#	c #31333C",
"$	c #31333B",
"%	c #30323B",
"&	c #30323A",
"*	c #2F313A",
"=	c #2F3139",
"-	c #2F3039",
";	c #2E3038",
">	c #2E2F37",
",	c #2D2F37",
"'	c #2D2E36",
")	c #2C2E36",
"!	c #2C2D35",
"~	c #2B2D35",
"{	c #2B2C34",
"]	c #2A2C34",
"^	c #2A2B33",
"/	c #292B32",
"(	c #292A32",
"_	c #282A31",
":	c #282931",
"<	c #282930",
"[	c #272830",
"}	c #27282F",
"|	c #26272E",
"1	c #2B2C33",
"2	c #17181C",
"..    ",
"++..  ",
"@@@@. ",
"@@@@. ",
"#####.",
"$$$$$.",
"%%%%%.",
"&&&&&.",
"*****.",
"=====.",
"-----.",
";;;;;.",
">>>>>.",
",,,,,.",
"'''''.",
"))))).",
"!!!!!.",
"~~~~~.",
"{{{{{.",
"]]]]].",
"^^^^^.",
"/////.",
"(((((.",
"_____.",
":::::.",
"<<<<<.",
"[[[[[.",
"}}}}}.",
"|||||.",
"|||||.",
"11111.",
"22222."};
