/* XPM */
static char * top_left_inactive_xpm[] = {
"6 32 31 1",
" 	c None",
".	c #070708",
"+	c #444750",
"@	c #363942",
"#	c #353841",
"$	c #353840",
"%	c #343740",
"&	c #34373F",
"*	c #33363F",
"=	c #33363E",
"-	c #33353E",
";	c #32353D",
">	c #32343C",
",	c #31343C",
"'	c #31333B",
")	c #30333B",
"!	c #30323A",
"~	c #2F323A",
"{	c #2F3139",
"]	c #2E3139",
"^	c #2E3038",
"/	c #2D3037",
"(	c #2D2F37",
"_	c #2C2F36",
":	c #2C2E36",
"<	c #2C2E35",
"[	c #2B2D35",
"}	c #2B2D34",
"|	c #2A2C33",
"1	c #2F3138",
"2	c #17181C",
"    ..",
"  ..++",
" .@@@@",
" .@@@@",
".#####",
".$$$$$",
".%%%%%",
".&&&&&",
".*****",
".=====",
".-----",
".;;;;;",
".>>>>>",
".,,,,,",
".'''''",
".)))))",
".!!!!!",
".~~~~~",
".{{{{{",
".]]]]]",
".^^^^^",
"./////",
".(((((",
"._____",
".:::::",
".<<<<<",
".[[[[[",
".}}}}}",
".|||||",
".|||||",
".11111",
".22222"};
