/* XPM */
static char * top_right_inactive_xpm[] = {
"7 32 15 1",
" 	c None",
".	c #A1A1A1",
"+	c #FEFEFE",
"@	c #F6F6F6",
"#	c #FAFAFA",
"$	c #F4F4F4",
"%	c #F9F9F9",
"&	c #F8F8F8",
"*	c #F7F7F7",
"=	c #F5F5F5",
"-	c #F3F3F3",
";	c #F2F2F2",
">	c #F1F1F1",
",	c #F0F0F0",
"'	c #A6A6A6",
"...... ",
"++++@..",
"#####$.",
"%%%%%%.",
"%%%%%%.",
"%%%%%%.",
"&&&&&&.",
"&&&&&&.",
"&&&&&&.",
"******.",
"******.",
"******.",
"@@@@@@.",
"@@@@@@.",
"@@@@@@.",
"======.",
"======.",
"======.",
"$$$$$$.",
"$$$$$$.",
"$$$$$$.",
"------.",
"------.",
"------.",
";;;;;;.",
";;;;;;.",
";;;;;;.",
">>>>>>.",
">>>>>>.",
">>>>>>.",
",,,,,,.",
"''''''."};
