/* XPM */
static char * top_left_inactive_xpm[] = {
"6 32 15 1",
" 	c None",
".	c #A1A1A1",
"+	c #FDFDFD",
"@	c #F2F2F2",
"#	c #F1F1F1",
"$	c #F0F0F0",
"%	c #EFEFEF",
"&	c #EEEEEE",
"*	c #EDEDED",
"=	c #ECECEC",
"-	c #EBEBEB",
";	c #EAEAEA",
">	c #E9E9E9",
",	c #E3E3E3",
"'	c #B3B3B3",
"    ..",
"  ..++",
" .@@@@",
" .@@@@",
".@@@@@",
".#####",
".#####",
".#####",
".$$$$$",
".$$$$$",
".$$$$$",
".%%%%%",
".%%%%%",
".%%%%%",
".&&&&&",
".&&&&&",
".&&&&&",
".*****",
".*****",
".*****",
".=====",
".=====",
".=====",
".-----",
".-----",
".-----",
".;;;;;",
".;;;;;",
".;;;;;",
".>>>>>",
".,,,,,",
".'''''"};
