/* XPM */
static char * top_right_active_xpm[] = {
"6 32 24 1",
" 	c None",
".	c #A1A1A1",
"+	c #FAFAFA",
"@	c #E4E4E4",
"#	c #E3E3E3",
"$	c #E3E3E4",
"%	c #E2E2E3",
"&	c #E2E2E4",
"*	c #E1E1E3",
"=	c #E0E0E3",
"-	c #DFDFE2",
";	c #DEDEE2",
">	c #DDDDE1",
",	c #DDDDE2",
"'	c #DCDCE1",
")	c #DCDCE2",
"!	c #DBDBE1",
"~	c #DADAE1",
"{	c #D8D8E1",
"]	c #D7D7E0",
"^	c #D6D6DF",
"/	c #D5D5DF",
"(	c #DBDDE5",
"_	c #B3B3B3",
"..    ",
"++..  ",
"@@@@. ",
"####. ",
"$$$$$.",
"%%%%%.",
"&&&&&.",
"*****.",
"*****.",
"=====.",
"-----.",
";;;;;.",
";;;;;.",
">>>>>.",
",,,,,.",
"'''''.",
"))))).",
"!!!!!.",
"!!!!!.",
"~~~~~.",
"~~~~~.",
"{{{{{.",
"{{{{{.",
"]]]]].",
"{{{{{.",
"]]]]].",
"]]]]].",
"^^^^^.",
"^^^^^.",
"/////.",
"(((((.",
"_____."};
