/* XPM */
static char * top_right_active_xpm[] = {
"6 32 2 1",
" 	c None",
".	c #A1A1A1",
"..    ",
"....  ",
"..... ",
"..... ",
"......",
"......",
"......",
"......",
"......",
"......",
"......",
"......",
"......",
"......",
"......",
"......",
"......",
"......",
"......",
"......",
"......",
"......",
"......",
"......",
"......",
"......",
"......",
"......",
"......",
"......",
"......",
"......"};
