/* XPM */
static char * top_right_inactive_xpm[] = {
"6 32 19 1",
" 	c None",
".	c #A1A1A1",
"+	c #FAFAFA",
"@	c #E8E8E8",
"#	c #A2A2A2",
"$	c #E7E7E7",
"%	c #E6E6E6",
"&	c #E5E5E5",
"*	c #E4E4E4",
"=	c #E3E3E3",
"-	c #E2E2E2",
";	c #E1E1E1",
">	c #E0E0E0",
",	c #DFDFDF",
"'	c #DEDEDE",
")	c #DDDDDD",
"!	c #DCDCDC",
"~	c #DBDBDB",
"{	c #B3B3B3",
"..    ",
"++..  ",
"@@@@# ",
"@@@@# ",
"$$$$$.",
"$$$$$.",
"%%%%%.",
"%%%%%.",
"&&&&&.",
"&&&&&.",
"*****.",
"*****.",
"=====.",
"=====.",
"-----.",
"-----.",
";;;;;.",
";;;;;.",
">>>>>.",
">>>>>.",
",,,,,.",
",,,,,.",
"'''''.",
"'''''.",
"))))).",
"))))).",
"!!!!!.",
"!!!!!.",
"~~~~~.",
"~~~~~.",
";;;;;.",
"{{{{{."};
